inDegrees=yes
name=ik_S53_A07_T02
DataType=double
version=3
OpenSimVersion=4.3-2021-08-27-4bc7ad9
endheader
time	pelvis_tilt	pelvis_list	pelvis_rotation	pelvis_tx	pelvis_ty	pelvis_tz	hip_flexion_r	hip_adduction_r	hip_rotation_r	knee_angle_r	knee_angle_r_beta	ankle_angle_r	subtalar_angle_r	mtp_angle_r	hip_flexion_l	hip_adduction_l	hip_rotation_l	knee_angle_l	knee_angle_l_beta	ankle_angle_l	subtalar_angle_l	mtp_angle_l	lumbar_extension	lumbar_bending	lumbar_rotation	arm_flex_r	arm_add_r	arm_rot_r	elbow_flex_r	pro_sup_r	wrist_flex_r	wrist_dev_r	arm_flex_l	arm_add_l	arm_rot_l	elbow_flex_l	pro_sup_l	wrist_flex_l	wrist_dev_l
14.77999999999977	-3.921739999048919	-1.154384536354918	23.91818861292519	0	0.9399999999999999	0	37.57306183559112	-11.09823265488567	-10.01097154572946	54.16168748398547	0.94529977503175	0	0	0	37.57306183559112	-11.09823265488567	-10.01097154572946	54.16168748398547	0.94529977503175	0	0	0	-2.626057364781195	-3.171310715483579	-0.8274982041676899	57.65837801332091	-1.500544689843327	15.79833889767533	89.84757487041716	108.6773478978311	0	0	20.32082049474398	-6.392598388608215	1.009551506043851	42.60219814916246	125.1336184378474	0	0
14.79999999999977	-3.904996161384117	-1.137328211418788	23.90309880681694	0	0.9399999999999999	0	37.57532854023722	-11.09707902442614	-10.01096414407603	54.16185814503416	0.9453027536289546	0	0	0	37.57532854023722	-11.09707902442614	-10.01096414407603	54.16185814503416	0.9453027536289546	0	0	0	-2.60403193737045	-3.161953127904059	-0.8248516640083676	57.95856548588956	-1.614086465032445	15.88476456301106	89.67168304129842	108.4105813199927	0	0	20.2872927155377	-6.386939845551395	0.9930572829386647	42.60680522641766	125.159682272791	0	0
14.81999999999977	-3.880960752649163	-1.116774806869442	23.96627776857849	0	0.9399999999999999	0	37.57992922333224	-11.09475012001278	-10.01094917149088	54.16220604446966	0.9453088256195699	0	0	0	37.57992922333224	-11.09475012001278	-10.01094917149088	54.16220604446966	0.9453088256195699	0	0	0	-2.57534594280296	-3.148030888852783	-0.901749433814809	57.96888533512814	-1.757805342692441	15.97306546363848	92.22548240361552	107.9052878411578	0	0	20.32645470333597	-6.459266488649574	1.167005150153934	42.53440172372896	124.9914208142568	0	0
14.83999999999977	-3.865607112149259	-1.111053147550801	23.96255417858832	0	0.9399999999999999	0	37.58351501710029	-11.09292415364255	-10.01093745359022	54.16247533032631	0.9453135255443974	0	0	0	37.58351501710029	-11.09292415364255	-10.01093745359022	54.16247533032631	0.9453135255443974	0	0	0	-2.559262569087937	-3.148270210327153	-0.8964723147732393	58.32304376114903	-1.960699749429281	15.99397180863449	93.14853592271615	107.5733482153438	0	0	20.32679286060705	-6.475062010518687	1.213108790764752	42.50388367689552	124.9893939341512	0	0
14.85999999999977	-3.850004914162402	-1.090286267401853	23.93883328133988	0	0.9399999999999999	0	37.58629031113284	-11.09151338499974	-10.01092839316749	54.16268392721341	0.9453171662468867	0	0	0	37.58629031113284	-11.09151338499974	-10.01092839316749	54.16268392721341	0.9453171662468867	0	0	0	-2.536909146503494	-3.134824825223691	-0.8965803887997503	58.73789494055831	-2.123985688475504	16.00653683102863	93.92564219358161	107.4605762553212	0	0	20.30633855568309	-6.469129328479836	1.206264493403032	42.49226456611022	124.9758174089917	0	0
14.87999999999977	-3.829909807620301	-1.080398806098714	23.93677063205805	0	0.9399999999999999	0	37.5894600823309	-11.08990247193096	-10.01091804477321	54.16292202891064	0.9453213219054579	0	0	0	37.5894600823309	-11.08990247193096	-10.01091804477321	54.16292202891064	0.9453213219054579	0	0	0	-2.514825172672174	-3.133043338790143	-0.8949889374159784	59.05853205167495	-2.268397863128089	16.01195988603163	94.67306812967396	107.5062248096841	0	0	20.2918550922736	-6.478715633245254	1.200714388042333	42.45780755941782	124.9689927529394	0	0
14.89999999999977	-3.827587619862492	-1.07656138902215	23.92698836396703	0	0.9399999999999999	0	37.59269233362487	-11.0882634050822	-10.01090750579085	54.16316513780718	0.9453255649561435	0	0	0	37.59269233362487	-11.0882634050822	-10.01090750579085	54.16316513780718	0.9453255649561435	0	0	0	-2.511382352185275	-3.1297854993467	-0.8885779338421979	59.32718057724988	-2.407150063954884	16.04147260721439	95.42420983932848	107.6432443639253	0	0	20.30695598301876	-6.464335713507112	1.201965902217122	42.44596450613054	124.9485613884022	0	0
14.91999999999977	-3.825566521616552	-1.078302148956291	23.93200292645431	0	0.9399999999999999	0	37.60137474362497	-11.08372774061272	-10.01087878626358	54.16381538192869	0.9453369138570055	0	0	0	37.60137474362497	-11.08372774061272	-10.01087878626358	54.16381538192869	0.9453369138570055	0	0	0	-2.511385984461308	-3.129230541627553	-0.887148604810963	59.33219435487828	-2.414680831585377	16.03924406041345	95.42199116881211	107.6208725427385	0	0	20.3111032449651	-6.474941729966297	1.210303460791545	42.47931305527963	124.9182502873312	0	0
14.93999999999977	-3.780621881141543	-1.067701904561817	23.91801483471123	0	0.9399999999999999	0	37.5971411573578	-11.08439533702861	-10.01088747089907	54.16346161164178	0.9453307394007033	0	0	0	37.5971411573578	-11.08439533702861	-10.01088747089907	54.16346161164178	0.9453307394007033	0	0	0	-2.46561899850353	-3.138631439086769	-0.9059213774391007	59.24193907678167	-2.37488309749894	16.05312585991141	95.42405744092902	107.6112769495146	0	0	20.23038562523636	-6.502930152217806	1.149633935485089	42.43960450293721	124.9440558196731	0	0
14.95999999999977	-3.776623504084156	-1.067432174010246	23.90105545030829	0	0.9399999999999999	0	37.60234294877361	-11.08175911197755	-10.01087050062673	54.16385158791011	0.9453375457705903	0	0	0	37.60234294877361	-11.08175911197755	-10.01087050062673	54.16385158791011	0.9453375457705903	0	0	0	-2.46208660643322	-3.139411586075413	-0.8917374632425552	60.00744611081565	-2.694307795044494	15.96712120346974	97.22701283040145	107.7212744271944	0	0	20.23139695592036	-6.495779843998899	1.12135747100335	42.4455816321681	124.9294191918871	0	0
14.97999999999977	-3.777372316578345	-1.068288206354798	23.90929441005298	0	0.9399999999999999	0	37.60600274286633	-11.07991094989236	-10.0108585859609	54.16412658763083	0.9453423454211588	0	0	0	37.60600274286633	-11.07991094989236	-10.0108585859609	54.16412658763083	0.9453423454211588	0	0	0	-2.463730434323769	-3.137979680866105	-0.9006845738384623	60.34431105454736	-2.81484416021688	15.9695252453315	97.65522093555693	107.3640517897235	0	0	20.24538544749373	-6.483575559089358	1.093421202211897	42.43869658238494	124.9494240808531	0	0
14.99999999999977	-3.771458942955579	-1.068566942840635	23.90421956095524	0	0.9399999999999999	0	37.60986003412265	-11.07653769855854	-10.01084104223727	54.16437807969223	0.9453467347856731	0	0	0	37.60986003412265	-11.07653769855854	-10.01084104223727	54.16437807969223	0.9453467347856731	0	0	0	-2.458931136003685	-3.139331206572171	-0.9034017872823388	60.32984345829606	-2.809441190098019	15.97123355709979	97.65205537392433	107.3558107523521	0	0	20.25065553636777	-6.484398357589785	1.086778702973791	42.4535027199429	124.9323824517997	0	0
15.01999999999977	-3.742041807646315	-1.067061018675377	23.90566310338043	0	0.9399999999999999	0	37.61294104018688	-11.07499447297414	-10.01083105747926	54.16461069369045	0.9453507946658282	0	0	0	37.61294104018688	-11.07499447297414	-10.01083105747926	54.16461069369045	0.9453507946658282	0	0	0	-2.432511532324487	-3.146508010407365	-0.9554106946745967	60.4937550213852	-2.792508582927906	15.92985158295378	98.55453423960667	106.9854028720843	0	0	20.18523789170399	-6.51821403741242	1.038913235367579	42.44561223083268	124.9294098944551	0	0
15.03999999999977	-3.733057054172705	-1.060604383886495	23.90247009352168	0	0.9399999999999999	0	37.61500512242666	-11.07153826690211	-10.01081604949481	54.16470647044785	0.9453524662855917	0	0	0	37.61500512242666	-11.07153826690211	-10.01081604949481	54.16470647044785	0.9453524662855917	0	0	0	-2.421828925999769	-3.14387582061553	-0.9543671393338199	60.47103733042381	-2.797383824042929	15.93823266391926	98.55256669550131	106.9603389754066	0	0	20.16835801678358	-6.51192567107996	1.035806716649581	42.44707470482066	124.9294391432917	0	0
15.05999999999977	-3.730599580031955	-1.069502785562903	23.87538903078212	0	0.9399999999999999	0	37.61742978063097	-11.07034710879905	-10.01080828369269	54.16489237811624	0.9453557109865098	0	0	0	37.61742978063097	-11.07034710879905	-10.01080828369269	54.16489237811624	0.9453557109865098	0	0	0	-2.423405694610678	-3.15241329117691	-0.9526944545330229	60.5007008510088	-2.80484755602755	15.90414819899858	99.3840595566831	107.2289320652324	0	0	20.18990009751309	-6.513830473654986	1.036848559197038	42.43990745966976	124.9342479576379	0	0
15.07999999999977	-3.720733848037501	-1.06811112697459	23.84089653722367	0	0.9399999999999999	0	37.61948825191232	-11.06932688723015	-10.01080165116558	54.16504871697593	0.9453584396143602	0	0	0	37.61948825191232	-11.06932688723015	-10.01080165116558	54.16504871697593	0.9453584396143602	0	0	0	-2.413537879342741	-3.155924194015251	-0.9224975267859152	60.49620279742167	-2.827868487155903	15.88494208744653	99.75057301923614	107.5410166570553	0	0	20.16829662425438	-6.504681758750686	1.106572303110479	42.45261846861658	124.8810330234336	0	0
15.09999999999977	-3.709557092654555	-1.070684288816809	23.83137945259032	0	0.9399999999999999	0	37.63808273483616	-11.06034336586777	-10.01074254291079	54.16645369279054	0.945382961068236	0	0	0	37.63808273483616	-11.06034336586777	-10.01074254291079	54.16645369279054	0.945382961068236	0	0	0	-2.406794685246006	-3.156483550907561	-0.9183609709960344	60.49273690699918	-2.822422386934715	15.88576842273464	99.74082083801945	107.5024541669501	0	0	20.13992158234294	-6.5191326014569	1.140497876033149	42.52446052676088	124.8045580312939	0	0
15.11999999999977	-3.712641913920448	-1.072450721954041	23.82169218033222	0	0.9399999999999999	0	37.64148717854783	-11.05838081715881	-10.01073065446857	54.16670341430771	0.9453873195309237	0	0	0	37.64148717854783	-11.05838081715881	-10.01073065446857	54.16670341430771	0.9453873195309237	0	0	0	-2.410843519677527	-3.155509780993801	-0.921626829215962	60.49299927162672	-2.814702029577042	15.88340437766427	99.74491810174479	107.5022614324213	0	0	20.12920150045067	-6.526267312524852	1.13735385502572	42.53157549964546	124.7961309283424	0	0
15.13999999999977	-3.704025829592348	-1.083998135038963	23.7763371966385	0	0.9399999999999999	0	37.64342443120365	-11.05742324063694	-10.01072441556837	54.16685001024449	0.9453898781126905	0	0	0	37.64342443120365	-11.05742324063694	-10.01072441556837	54.16685001024449	0.9453898781126905	0	0	0	-2.407457440623233	-3.169994767432681	-0.9037249506654441	60.97933626556927	-2.831362132306815	15.6544210481351	99.47381795416378	107.2144078497364	0	0	20.12807699265375	-6.551243723452854	1.116680416718403	42.54514084103378	124.819094023845	0	0
15.15999999999977	-3.729692662952591	-1.081583626094686	23.74078371715603	0	0.9399999999999999	0	37.64518072712552	-11.0565777772651	-10.01071885616729	54.16698626291463	0.9453922561703991	0	0	0	37.64518072712552	-11.0565777772651	-10.01071885616729	54.16698626291463	0.9453922561703991	0	0	0	-2.429507861795811	-3.158579037712127	-0.8636158690248324	61.06959524798079	-2.929719402769262	15.69969247517714	100.2205743461159	108.1641947730918	0	0	20.18812956888653	-6.516595376952879	1.089684995644431	42.54514530185703	124.8314506140162	0	0
15.17999999999977	-3.708973811894933	-1.084153756548875	23.74909122849245	0	0.9399999999999999	0	37.64189288864294	-11.05593547802624	-10.01072146135231	54.16667804076984	0.945386876679145	0	0	0	37.64189288864294	-11.05593547802624	-10.01072146135231	54.16667804076984	0.945386876679145	0	0	0	-2.411249188681838	-3.170039672428487	-0.8778854772449934	60.98868968491279	-2.89457532476269	15.73140461798159	100.1910005609552	108.1269450575452	0	0	20.1194259768973	-6.527245462500898	1.048348821212897	42.529209996213	124.855866880314	0	0
15.19999999999976	-3.71042396923913	-1.087446825783935	23.75984844821005	0	0.9399999999999999	0	37.65950630704958	-11.04720007719724	-10.01066460524918	54.16800119845651	0.9454099701373004	0	0	0	37.65950630704958	-11.04720007719724	-10.01066460524918	54.16800119845651	0.9454099701373004	0	0	0	-2.416559795577572	-3.165522352348945	-0.8935853875368921	60.93668633858459	-2.853772909624054	15.75027051495611	100.0726023444766	107.9421596608948	0	0	20.10396039197408	-6.536896825668046	1.038904961480935	42.56525144829347	124.8501563065502	0	0
